<?xml version="1.0" encoding="UTF-8"?>
<!DOCTYPE svg PUBLIC "-//W3C//DTD SVG 1.1//EN" "http://www.w3.org/Graphics/SVG/1.1/DTD/svg11.dtd">
<!-- Creator: CorelDRAW X6 -->
<svg xmlns="http://www.w3.org/2000/svg" xml:space="preserve" width="5.33333in" height="5.36111in" version="1.1" style="shape-rendering:geometricPrecision; text-rendering:geometricPrecision; image-rendering:optimizeQuality; fill-rule:evenodd; clip-rule:evenodd"
viewBox="0 0 5333 5361"
 xmlns:xlink="http://www.w3.org/1999/xlink">
 <defs>
  <style type="text/css">
   <![CDATA[
    .fil5 {fill:#9A468A;fill-rule:nonzero}
    .fil7 {fill:#B94C87;fill-rule:nonzero}
    .fil4 {fill:#BB4C89;fill-rule:nonzero}
    .fil8 {fill:#BD4A8A;fill-rule:nonzero}
    .fil3 {fill:#D3558D;fill-rule:nonzero}
    .fil0 {fill:#ED75AA;fill-rule:nonzero}
    .fil9 {fill:#F49BC1;fill-rule:nonzero}
    .fil1 {fill:#F8C2D9;fill-rule:nonzero}
    .fil2 {fill:#FCE5EF;fill-rule:nonzero}
    .fil6 {fill:#FEFEFE;fill-rule:nonzero}
   ]]>
  </style>
 </defs>
 <g id="Layer_x0020_1">
  <metadata id="CorelCorpID_0Corel-Layer"/>
  <path class="fil0" d="M3690 990c0,548 -445,993 -993,993 -548,0 -993,-445 -993,-993 0,-548 444,-993 993,-993 548,0 993,445 993,993z"/>
  <path class="fil1" d="M2697 -2c-292,0 -554,126 -736,327 -40,44 -33,113 13,150 1,0 1,1 2,1 43,34 104,28 141,-12 144,-158 350,-257 580,-257 44,0 88,4 130,11 54,9 107,-25 119,-78 0,-1 1,-2 1,-4 13,-57 -26,-113 -84,-123 -54,-9 -109,-14 -166,-14z"/>
  <path class="fil2" d="M2293 84c-55,24 -107,53 -155,86 -49,33 -61,101 -25,148 0,1 1,1 1,2 34,44 95,54 141,23 38,-26 78,-49 121,-68 46,-21 71,-71 59,-120 0,-1 0,-1 -1,-2 -16,-61 -83,-95 -141,-69z"/>
  <path class="fil1" d="M1818 897c1,0 1,0 2,0 52,6 100,-28 112,-79 5,-23 12,-47 19,-69 18,-57 -16,-117 -74,-131 -1,0 -1,0 -2,-1 -52,-13 -106,17 -122,69 -9,28 -17,57 -23,86 -13,60 29,118 90,125z"/>
  <path class="fil3" d="M3630 651c-21,-57 -106,-43 -107,18 -1,49 -5,98 -13,145 -74,433 -451,762 -905,762 -330,0 -619,-174 -781,-435 -32,-52 -113,-21 -101,39 0,1 0,2 1,3 92,469 515,820 1016,800 516,-21 934,-442 951,-959 4,-131 -17,-257 -59,-373z"/>
  <path class="fil4" d="M3257 1299c0,103 -84,187 -187,187 -103,0 -187,-84 -187,-187 0,-103 84,-187 187,-187 103,0 187,84 187,187z"/>
  <path class="fil3" d="M3306 587c0,116 -94,210 -210,210 -116,0 -210,-94 -210,-210 0,-116 94,-210 210,-210 116,0 210,94 210,210z"/>
  <path class="fil3" d="M2995 954c0,69 -56,126 -126,126 -69,0 -126,-56 -126,-126 0,-70 56,-126 126,-126 69,0 126,56 126,126z"/>
  <path class="fil4" d="M3239 516c0,0 -1,0 -1,0 -21,8 -34,30 -31,52 2,14 2,30 -2,45 -10,42 -45,75 -87,83 -21,4 -41,2 -59,-4 -19,-7 -41,-1 -54,14 0,0 0,1 -1,1 -21,25 -11,64 20,76 29,11 62,15 95,11 95,-10 172,-87 184,-182 3,-21 2,-41 -1,-60 -5,-30 -36,-47 -64,-37z"/>
  <path class="fil4" d="M2903 888c0,0 0,1 0,1 -1,10 1,20 8,27 12,13 18,32 13,53 -5,19 -21,35 -40,40 -13,3 -25,2 -36,-2 -15,-6 -33,0 -42,14 0,0 0,0 0,1 -11,18 -4,42 15,50 17,7 37,11 57,9 61,-4 111,-54 117,-115 3,-36 -9,-70 -32,-95 -20,-22 -57,-11 -60,18z"/>
  <path class="fil3" d="M2883 1576c0,69 -56,126 -126,126 -69,0 -126,-56 -126,-126 0,-70 56,-126 126,-126 69,0 126,56 126,126z"/>
  <path class="fil3" d="M2620 1038c0,52 -42,94 -94,94 -52,0 -94,-42 -94,-94 0,-52 42,-94 94,-94 52,0 94,42 94,94z"/>
  <path class="fil3" d="M2130 1222c0,35 -28,63 -63,63 -35,0 -63,-28 -63,-63 0,-35 28,-63 63,-63 35,0 63,28 63,63z"/>
  <path class="fil1" d="M2540 470c0,35 -28,63 -63,63 -35,0 -63,-28 -63,-63 0,-35 28,-63 63,-63 35,0 63,28 63,63z"/>
  <path class="fil3" d="M2289 1443c0,52 -42,94 -94,94 -52,0 -94,-42 -94,-94 0,-52 42,-94 94,-94 52,0 94,42 94,94z"/>
  <path class="fil1" d="M2369 654c0,52 -42,94 -94,94 -52,0 -94,-42 -94,-94 0,-52 42,-94 94,-94 52,0 94,42 94,94z"/>
  <path class="fil4" d="M3559 995c0,70 -56,126 -126,126 -70,0 -126,-56 -126,-126 0,-69 56,-126 126,-126 69,0 126,56 126,126z"/>
  <path class="fil3" d="M5338 3429c-10,-244 -205,-442 -449,-456l0 -211c0,-101 -78,-188 -178,-193 -108,-5 -197,81 -197,187l0 243c0,191 155,346 345,347 57,0 104,45 104,102l0 38c0,26 -8,51 -25,71 -20,22 -47,35 -77,35l-486 0c-79,0 -144,-64 -144,-144l0 -201c0,-245 -148,-455 -360,-547 -72,-31 -134,-42 -190,-46 -64,-5 -115,-57 -115,-122l0 -4c0,-67 55,-122 122,-122l530 0c288,0 531,-227 536,-516 3,-144 -52,-280 -154,-382 -99,-99 -231,-154 -372,-154l-249 0c-101,0 -188,78 -193,178 -5,108 81,197 187,197l250 0c38,0 76,13 105,38 34,31 52,74 50,120 -4,81 -74,143 -155,143l-1051 0 0 -331 -954 0 0 331 -1153 0c-88,0 -160,-72 -160,-160l0 -352c0,-76 56,-142 132,-149 87,-8 160,60 160,145l0 97c0,101 78,188 178,193 108,5 197,-81 197,-187l0 -92c0,-284 -224,-524 -508,-530 -293,-7 -533,229 -533,521l0 356c0,295 239,535 535,535l614 0c67,0 122,55 122,122l0 2c0,67 -55,122 -122,122l-33 0c-299,0 -542,243 -542,542l0 157c0,92 -68,172 -159,180 -105,10 -193,-73 -193,-175l0 -350c0,-242 -196,-438 -438,-438l-124 0c-101,0 -188,78 -193,178 -5,108 81,197 187,197l130 0c35,0 63,28 63,63l0 339c0,301 237,554 538,561 310,7 564,-243 564,-551l0 -162c0,-92 75,-167 167,-167l447 0c254,0 461,206 461,461l0 678c0,110 -89,199 -199,199l-360 0c-108,0 -201,-84 -205,-192 -4,-112 86,-205 197,-206 78,-1 151,-44 177,-118 48,-133 -49,-257 -175,-257 -321,0 -582,265 -574,588 7,313 271,560 585,560l355 0c317,0 574,-257 574,-574l0 -678c0,-254 206,-461 461,-461l245 0c121,0 220,98 220,220l0 201c0,286 232,519 519,519l477 0c126,0 250,-46 341,-134 89,-86 140,-200 145,-322l0 -83z"/>
  <path class="fil4" d="M3760 2032c-19,48 -48,91 -84,127 -69,69 -164,111 -269,111l-405 0c-179,0 -329,-123 -369,-290 -7,-29 -11,-59 -11,-91 0,-105 43,-200 111,-269 32,-32 71,-59 113,-78 27,-7 54,-16 80,-26 302,-113 528,-379 584,-704 8,-48 13,-96 13,-145 1,-61 86,-75 107,-18 3,7 5,14 8,21 4,13 8,26 12,39 2,7 4,14 6,20 2,6 3,12 5,17 1,3 1,6 2,9 1,5 3,10 4,15l0 0c2,7 3,14 4,21 4,21 8,42 11,64 1,6 2,11 2,17 1,6 1,11 2,17 1,7 1,14 2,21 0,1 0,2 0,3 0,5 1,11 1,16 0,7 1,13 1,20 0,5 0,11 1,16 0,19 0,37 0,56 0,8 -1,15 -1,23 0,9 -1,19 -2,28 -1,12 -2,23 -4,35 -18,153 -73,296 -153,420 0,0 1,0 1,0 -89,138 -212,252 -356,331l0 171 586 0z"/>
  <path class="fil0" d="M657 1516c0,-106 41,-205 116,-280 75,-75 174,-116 280,-116 3,0 6,0 10,0 39,1 76,8 112,20 32,11 66,-7 77,-39 0,0 0,-1 0,-1 11,-32 -6,-68 -38,-78 -47,-16 -96,-24 -148,-26 -4,0 -8,0 -13,0 -287,0 -521,234 -521,521l0 223c0,35 29,64 65,62 0,0 1,0 1,0 33,-2 59,-29 59,-62l0 -223z"/>
  <path class="fil1" d="M657 1516c0,-18 1,-35 4,-52 4,-32 -18,-62 -50,-68 0,0 -1,0 -1,0 -35,-7 -68,17 -73,52 -3,23 -5,46 -5,69l0 31c0,34 28,62 62,62l1 0c34,0 62,-28 62,-62l0 -31z"/>
  <path class="fil1" d="M640 1297c0,0 1,1 1,1 28,23 69,18 90,-12 13,-18 27,-34 42,-50 52,-52 116,-88 185,-105 32,-8 53,-38 48,-70 0,0 0,-1 0,-1 -6,-36 -41,-59 -77,-50 -123,30 -229,104 -300,204 -19,26 -14,62 11,83z"/>
  <path class="fil5" d="M1928 2531l0 -2c0,-136 -111,-247 -247,-247l-614 0c-37,0 -73,-5 -107,-14 -36,-10 -72,12 -79,48l0 1c-6,31 13,62 44,71 45,12 93,19 142,19l614 0c67,0 122,55 122,122l0 2c0,11 -1,21 -4,31 0,0 0,1 0,1 43,-3 86,-5 128,-7 1,-8 1,-17 1,-26z"/>
  <path class="fil0" d="M1390 2803c-1,-1 -1,-2 -2,-4 -19,-34 -65,-40 -94,-15 -115,99 -188,246 -188,410l0 157c0,17 -2,34 -7,50 -8,27 2,55 25,70 0,0 1,0 1,1 34,22 80,7 92,-32 9,-28 13,-58 13,-89l0 -157c0,-126 56,-239 145,-316 22,-19 28,-51 14,-76z"/>
  <path class="fil0" d="M193 2694l126 0c64,0 124,20 174,53 83,56 137,150 137,258l0 83c0,40 37,69 76,59l3 -1c27,-7 46,-31 46,-59l0 -82c0,-118 -47,-225 -123,-303 -79,-82 -190,-132 -313,-132l-126 0c-44,0 -86,15 -119,40 -37,28 -30,86 13,104 0,0 1,0 1,0 20,9 44,8 62,-6 12,-9 27,-14 43,-14z"/>
  <path class="fil1" d="M303 2569l-16 0c-34,0 -61,27 -60,61 0,1 0,3 0,4 0,33 27,60 60,60l15 0c2,0 4,0 5,0 32,1 60,-24 62,-56 0,-1 0,-3 0,-4 2,-34 -24,-64 -59,-65 -3,0 -6,0 -9,0z"/>
  <path class="fil1" d="M632 2702c-32,-33 -69,-60 -109,-82 -33,-17 -74,-1 -86,34 0,1 -1,3 -1,4 -9,29 4,59 30,73 9,5 19,11 27,16 26,17 48,38 68,62 19,23 52,28 77,13 1,-1 2,-1 4,-2 31,-19 39,-61 16,-89 -8,-10 -17,-20 -26,-29z"/>
  <path class="fil5" d="M590 3687c0,0 -1,1 -1,1 -32,24 -32,73 0,98 19,15 39,30 60,42 36,22 82,3 92,-38 0,0 0,-1 0,-1 7,-26 -4,-54 -28,-68 -16,-10 -32,-21 -47,-33 -22,-18 -54,-18 -77,-1z"/>
  <path class="fil5" d="M1415 3233c-33,2 -58,29 -58,62l0 62c0,188 -123,348 -292,404 -28,9 -47,37 -43,67 0,0 0,1 0,1 5,38 43,63 80,51 220,-72 380,-279 380,-524l0 -62c0,-36 -30,-64 -66,-62 0,0 -1,0 -1,0z"/>
  <path class="fil5" d="M2095 2903l-297 0c-35,0 -63,30 -62,65 0,0 0,1 0,1 1,33 29,59 62,59l297 0c135,0 256,58 340,150 21,23 56,27 81,9 0,0 1,0 1,-1 31,-22 34,-65 9,-93 -107,-117 -261,-190 -432,-190z"/>
  <path class="fil0" d="M727 2101c-15,-23 -29,-48 -39,-74 -12,-28 -43,-43 -73,-34 -1,0 -2,1 -3,1 -35,10 -54,47 -40,81 14,34 31,66 51,96 21,32 67,36 93,8 1,-1 3,-3 4,-4 19,-20 22,-52 7,-75z"/>
  <path class="fil5" d="M5106 3744c-66,64 -156,99 -254,99l-477 0c-106,0 -202,-42 -272,-110 -28,-27 -73,-24 -95,8 0,1 -1,1 -1,2 -17,25 -13,58 9,79 93,90 220,145 360,145l477 0c126,0 248,-46 339,-133 54,-52 94,-115 119,-183 14,-38 -14,-79 -55,-82 0,0 -1,0 -1,0 -28,-2 -53,15 -62,41 -18,49 -47,94 -86,132z"/>
  <path class="fil5" d="M782 1587l0 196c0,40 37,70 76,61l0 0c29,-6 49,-32 49,-61l0 -196c0,-36 -30,-64 -66,-62l0 0c-33,2 -59,29 -59,62z"/>
  <path class="fil5" d="M4638 1669c-29,14 -42,47 -31,78 16,45 24,93 23,142 0,13 -1,25 -3,38 -3,26 10,51 33,63 0,0 1,0 1,1 38,19 85,-5 90,-48 2,-17 3,-34 4,-51 1,-65 -9,-128 -31,-188 -12,-35 -52,-51 -85,-36 0,0 -1,0 -1,1z"/>
  <path class="fil0" d="M4350 1370c-39,-9 -80,-14 -121,-14 0,0 0,0 0,0l-249 0c-102,0 -189,79 -193,180 -1,38 8,73 26,103 21,34 68,40 96,11l3 -3c19,-20 21,-50 8,-74 -5,-10 -8,-21 -8,-33 2,-33 32,-59 68,-59l249 0c32,0 62,4 92,11 32,8 64,-12 73,-44l0 -1c10,-34 -11,-69 -45,-77z"/>
  <path class="fil5" d="M4613 2141l-2 -2c-25,-21 -62,-18 -84,7 -76,83 -186,136 -308,136l-51 0c0,2 1,5 1,7 0,-2 -1,-5 -1,-7l-479 0c-131,0 -238,102 -246,231 43,1 85,-4 126,-8 11,-56 60,-99 120,-99l530 0c157,0 301,-68 400,-176 24,-26 22,-67 -5,-90z"/>
  <path class="fil0" d="M3872 2701c-35,-15 -68,-26 -99,-33 -32,-8 -65,12 -74,44 0,0 0,1 0,1 -9,34 12,68 46,76 26,6 52,15 77,26 70,30 129,76 176,132 29,35 83,29 104,-11 0,0 0,-1 1,-1 11,-22 8,-48 -7,-67 -60,-72 -136,-130 -223,-168z"/>
  <path class="fil4" d="M2556 3968l0 199c0,110 -89,199 -199,199l-158 0c-63,0 -118,47 -124,110 0,1 0,2 0,3 -8,73 51,137 125,137l158 0c248,0 449,-201 449,-449l0 -199 -250 0z"/>
  <path class="fil0" d="M4514 2757l0 243c0,99 42,189 109,253 30,28 78,21 97,-15 0,0 0,-1 1,-1 13,-25 9,-55 -11,-75 -43,-41 -71,-98 -71,-162l0 -243c0,-8 1,-15 4,-21 7,-18 6,-38 -3,-55 0,0 0,-1 -1,-1 -25,-45 -92,-41 -111,7 -9,22 -14,45 -14,70z"/>
  <path class="fil5" d="M5157 3260c9,14 17,29 24,44 11,25 37,40 65,36 1,0 2,0 3,0 41,-6 64,-49 47,-87 -10,-22 -21,-43 -34,-63 -22,-34 -71,-38 -98,-7 -1,1 -1,1 -2,2 -18,21 -20,51 -5,74z"/>
  <path class="fil0" d="M1542 4178c0,-16 0,-33 1,-49 3,-31 -17,-59 -47,-66 0,0 -1,0 -1,0 -37,-9 -73,18 -76,56 -2,20 -2,41 -2,62 1,28 3,56 8,83 7,39 48,62 84,47 0,0 1,0 1,0 27,-11 43,-40 38,-69 -4,-21 -6,-42 -6,-63z"/>
  <path class="fil5" d="M3760 3009l-1 1c-15,21 -41,32 -67,25 -18,-5 -37,-7 -56,-7l-245 0c-254,0 -461,206 -461,461l0 678c0,317 -257,574 -574,574l-355 0c-135,0 -260,-46 -360,-123 -26,-20 -31,-58 -10,-84 1,-2 3,-3 4,-5 21,-26 58,-29 84,-9 78,60 177,96 282,96l355 0c164,0 308,-88 387,-220 1,-1 1,-2 2,-3 68,-117 -18,-265 -154,-265l-36 0 0 -160 250 0 0 -479c0,-323 262,-586 586,-586l245 0c30,0 60,4 88,11 41,11 58,59 35,95z"/>
  <path class="fil3" d="M2873 5361c-104,0 -188,-84 -188,-188 0,-226 184,-410 410,-410l7 0c138,0 250,-112 250,-250l0 -296c0,-138 -112,-250 -250,-250l-1111 0c-104,0 -188,-84 -188,-188 0,-104 84,-187 188,-187l1111 0c345,0 625,280 625,625l0 296c0,345 -280,625 -625,625l-7 0c-19,0 -35,16 -35,35 0,104 -84,188 -188,188z"/>
  <path class="fil5" d="M3602 4421l0 93c0,276 -224,500 -500,500l-7 0c-9,0 -17,1 -25,2 -82,13 -122,108 -77,178 0,0 1,1 1,1 20,30 66,16 66,-20 0,0 0,-1 0,-1 0,-19 15,-35 35,-35l7 0c345,0 625,-280 625,-625l0 -92c0,-38 -34,-67 -71,-61l-1 0c-30,5 -52,30 -52,61z"/>
  <path class="fil0" d="M3478 3851c0,0 0,1 0,1 -4,18 1,37 12,51 12,15 23,30 33,46 14,22 40,32 65,26l1 0c42,-9 62,-58 39,-94 -13,-20 -27,-39 -42,-58 -33,-40 -98,-24 -109,27z"/>
  <path class="fil0" d="M3102 3718c41,0 80,5 118,14 34,8 68,-14 75,-48 0,0 0,-1 0,-1 6,-32 -14,-64 -46,-72 -47,-12 -97,-18 -147,-18l-993 0c-42,0 -72,42 -59,82 0,0 0,1 0,1 8,25 32,42 59,42l993 0z"/>
  <path class="fil1" d="M1168 2944c-11,22 -21,44 -30,68 -15,41 15,83 58,83l1 0c26,0 49,-16 58,-41 7,-18 14,-36 23,-53 13,-24 8,-55 -12,-74 0,0 -1,-1 -1,-1 -30,-29 -79,-20 -98,17z"/>
  <path class="fil1" d="M4116 1412c-1,-31 -27,-56 -58,-56l-78 0c-32,0 -62,8 -88,21 -35,18 -42,65 -14,93 2,2 5,5 7,7 17,17 44,21 66,11 9,-4 19,-6 29,-6l79 0c33,0 59,-27 58,-60 0,-3 0,-6 0,-9z"/>
  <path class="fil1" d="M4577 2816l-1 0c-34,0 -62,28 -62,62l0 67c0,37 33,66 70,62l0 0c31,-4 55,-30 55,-62l0 -67c0,-34 -28,-62 -62,-62z"/>
  <path class="fil1" d="M2241 3639c0,1 -1,2 -1,3 -9,39 21,76 60,76l74 0c44,0 74,-45 57,-85 0,0 0,-1 -1,-1 -10,-23 -32,-38 -57,-38l-73 0c-28,0 -53,19 -60,46z"/>
  <path class="fil1" d="M2562 3654l0 1c0,34 28,62 62,62l384 0c32,0 59,-25 62,-57 0,0 0,-1 0,-1 3,-36 -26,-66 -62,-66l-385 0c-34,0 -62,28 -62,62z"/>
  <path class="fil0" d="M1566 3885c26,19 62,16 83,-8 7,-8 14,-16 22,-24 50,-51 110,-89 176,-112 29,-10 45,-39 39,-69 0,-1 -1,-3 -1,-4 -7,-35 -44,-57 -78,-45 -99,34 -186,94 -253,172 -23,27 -18,68 11,89 0,0 1,0 1,1z"/>
  <path class="fil5" d="M2418 1883c0,213 -86,405 -225,544 -127,127 -299,210 -490,223 57,-10 100,-60 100,-120l0 -2c0,-67 -55,-122 -122,-122l-33 0 0 -375 572 0 0 -149 198 0z"/>
  <path class="fil5" d="M3745 2032l0 375 -56 0c-67,0 -122,55 -122,122l0 4c0,51 32,95 78,113 -172,-22 -327,-102 -444,-219 -139,-139 -225,-332 -225,-544l198 0 0 149 572 0z"/>
  <path class="fil0" d="M3536 1850c19,154 -90,295 -244,314 -154,19 -295,-90 -314,-244 -19,-154 90,-295 244,-314 154,-19 295,90 314,244z"/>
  <path class="fil1" d="M3052 1790c22,17 54,12 72,-10 27,-34 66,-57 112,-63 12,-1 24,-2 35,-1 29,2 56,-18 58,-47 0,-3 0,-5 1,-8 2,-29 -19,-53 -47,-56 -19,-2 -39,-1 -60,1 -77,10 -143,49 -187,106 -18,23 -13,56 11,73 2,2 4,3 6,5z"/>
  <path class="fil6" d="M3254 2084c-30,0 -59,-12 -81,-33 -44,-44 -44,-117 0,-161l66 -66c22,-22 50,-33 81,-33 30,0 59,12 81,33 44,44 44,117 0,161l-66 66c-22,22 -50,33 -81,33z"/>
  <path class="fil4" d="M3319 1756c-40,0 -77,15 -105,44l-66 66c-28,28 -44,65 -44,105 0,40 15,77 44,105 28,28 65,44 105,44 40,0 77,-15 105,-44l66 -66c58,-58 58,-152 0,-210 -28,-28 -65,-44 -105,-44l0 0zm0 69c20,0 41,8 56,23l0 0c31,31 31,81 0,112l-66 66c-15,15 -36,23 -56,23 -20,0 -41,-8 -56,-23 -31,-31 -31,-81 0,-112l66 -66c15,-15 36,-23 56,-23l0 0z"/>
  <path class="fil0" d="M2413 1835c28,153 -73,299 -226,327 -153,28 -299,-73 -327,-226 -28,-153 73,-299 226,-327 153,-28 299,73 327,226z"/>
  <path class="fil1" d="M2106 1718c18,-3 36,-4 53,-1 32,4 62,-20 63,-52 0,0 0,-1 0,-1 1,-28 -20,-53 -48,-57 -28,-4 -58,-3 -87,2 -64,12 -118,44 -158,88 -23,26 -18,66 12,84 0,0 1,0 1,1 22,14 52,11 69,-9 24,-28 58,-48 97,-55z"/>
  <path class="fil6" d="M2140 2084c-30,0 -59,-12 -81,-33l-66 -66c-44,-44 -44,-117 0,-161 22,-22 50,-33 81,-33 30,0 59,12 81,33l66 66c44,44 44,117 0,161 -22,22 -50,33 -81,33z"/>
  <path class="fil4" d="M2074 1756c-40,0 -77,15 -105,44 -58,58 -58,152 0,210l66 66c28,28 65,44 105,44 40,0 77,-15 105,-44 28,-28 44,-65 44,-105 0,-40 -15,-77 -44,-105l-66 -66c-28,-28 -65,-44 -105,-44l0 0zm0 69c20,0 41,8 56,23l66 66c31,31 31,81 0,112 -15,15 -36,23 -56,23 -20,0 -41,-8 -56,-23l-66 -66c-31,-31 -31,-81 0,-112l0 0c15,-15 36,-23 56,-23l0 0z"/>
  <path class="fil7" d="M2926 1518c-26,10 -53,18 -80,26 25,-11 52,-20 80,-26z"/>
  <path class="fil4" d="M3990 2159l0 0c0,-70 56,-126 126,-126l-365 0c-70,0 -126,56 -126,126l0 0c0,70 56,126 126,126l365 0c-70,0 -126,-56 -126,-126z"/>
  <path class="fil8" d="M1404 2159l0 0c0,-70 -56,-126 -126,-126l365 0c70,0 126,56 126,126l0 0c0,70 -56,126 -126,126l-365 0c70,0 126,-56 126,-126z"/>
  <path class="fil0" d="M2424 2186c-37,-4 -73,14 -90,48 -37,72 -85,137 -141,194 -55,56 -119,102 -190,139 -41,21 -58,72 -40,114 0,1 0,1 1,2 21,47 77,68 123,44 85,-44 164,-102 233,-171 71,-71 130,-152 174,-239 29,-56 -6,-123 -68,-130 -1,0 -2,0 -2,0z"/>
  <path class="fil0" d="M2514 2836l0 0c-54,-15 -86,-72 -71,-126l108 -383c15,-54 72,-86 126,-71l0 0c54,15 86,72 71,126l-108 383c-15,54 -72,86 -126,71z"/>
  <path class="fil1" d="M2522 2634l0 0c-29,-8 -46,-39 -38,-68l49 -175c8,-29 39,-46 68,-38l0 0c29,8 46,39 38,68l-49 175c-8,29 -39,46 -68,38z"/>
  <path class="fil0" d="M2970 2775l0 0c-50,12 -101,-19 -113,-70l-36 -151c-12,-50 19,-101 70,-113l0 0c50,-12 101,19 113,70l36 151c12,50 -19,101 -70,113z"/>
  <path class="fil1" d="M2901 2657l0 0c-29,7 -58,-11 -65,-40l-11 -46c-7,-29 11,-58 40,-65l0 0c29,-7 58,11 65,40l11 46c7,29 -11,58 -40,65z"/>
  <path class="fil1" d="M2376 2290c0,0 -1,-1 -1,-1 -21,-24 -59,-21 -77,6 -30,48 -66,92 -106,132 -20,20 -41,39 -63,57 -20,16 -24,45 -9,66 0,0 0,1 1,1 16,22 47,26 69,9 25,-20 49,-41 72,-64 46,-46 85,-95 119,-148 12,-18 10,-42 -4,-58z"/>
  <path class="fil3" d="M2996 1282c6,-28 29,-51 57,-57 11,-2 21,-2 30,-1 21,4 42,-3 54,-20 1,-1 2,-3 3,-4 23,-30 8,-74 -29,-83 -22,-5 -46,-6 -71,-3 -81,12 -145,78 -157,159 -6,45 4,88 25,123 21,35 71,35 93,1 0,0 0,-1 1,-1 11,-17 13,-40 2,-57 -10,-16 -14,-36 -10,-57z"/>
  <path class="fil3" d="M3494 885c-25,-14 -54,-19 -86,-13 -49,10 -89,49 -98,98 -5,28 -2,55 9,78 12,25 47,27 61,3 0,-1 1,-1 1,-2 6,-10 6,-21 1,-31 -5,-11 -7,-25 -2,-39 6,-19 22,-34 41,-38 14,-3 27,-1 39,5 12,6 27,6 38,-2 0,0 1,-1 1,-1 19,-15 17,-45 -4,-57z"/>
  <path class="fil9" d="M2140 4699c0,76 -62,138 -138,138 -76,0 -138,-62 -138,-138 0,-76 62,-138 138,-138 76,0 138,62 138,138z"/>
  <path class="fil4" d="M2072 4699c0,39 -32,70 -71,70 -39,0 -70,-32 -70,-70 0,-39 32,-70 70,-70 39,0 71,32 71,70z"/>
  <path class="fil9" d="M864 3110c0,76 -62,138 -138,138 -76,0 -138,-62 -138,-138 0,-76 62,-139 138,-139 76,0 138,62 138,139z"/>
  <path class="fil4" d="M796 3110c0,39 -32,70 -70,70 -39,0 -70,-32 -70,-70 0,-39 32,-70 70,-70 39,0 70,32 70,70z"/>
  <path class="fil0" d="M4893 3925c0,76 -62,138 -139,138 -76,0 -139,-62 -139,-138 0,-76 62,-138 139,-138 76,0 139,62 139,138z"/>
  <path class="fil4" d="M4825 3925c0,39 -32,70 -70,70 -39,0 -70,-32 -70,-70 0,-39 32,-70 70,-70 39,0 70,32 70,70z"/>
  <path class="fil9" d="M1803 4601c0,71 -58,129 -129,129 -71,0 -129,-58 -129,-129 0,-71 58,-129 129,-129 71,0 129,58 129,129z"/>
  <path class="fil4" d="M1740 4601c0,36 -29,65 -65,65 -36,0 -65,-29 -65,-65 0,-36 29,-65 65,-65 36,0 65,29 65,65z"/>
  <path class="fil0" d="M883 3429c0,71 -58,129 -129,129 -71,0 -129,-58 -129,-129 0,-71 58,-129 129,-129 71,0 129,58 129,129z"/>
  <path class="fil4" d="M820 3429c0,36 -29,65 -65,65 -36,0 -65,-29 -65,-65 0,-36 29,-65 65,-65 36,0 65,29 65,65z"/>
  <path class="fil9" d="M755 2815c0,71 -58,129 -129,129 -71,0 -129,-58 -129,-129 0,-71 58,-129 129,-129 71,0 129,58 129,129z"/>
  <path class="fil4" d="M692 2815c0,36 -29,65 -65,65 -36,0 -65,-29 -65,-65 0,-36 29,-65 65,-65 36,0 65,29 65,65z"/>
  <path class="fil9" d="M1406 1641c0,71 -58,129 -129,129 -71,0 -129,-58 -129,-129 0,-71 58,-129 129,-129 71,0 129,58 129,129z"/>
  <path class="fil4" d="M1343 1641c0,36 -29,65 -65,65 -36,0 -65,-29 -65,-65 0,-36 29,-65 65,-65 36,0 65,29 65,65z"/>
  <path class="fil0" d="M2800 4601c0,71 -58,129 -129,129 -71,0 -129,-58 -129,-129 0,-71 58,-129 129,-129 71,0 129,58 129,129z"/>
  <path class="fil4" d="M2737 4601c0,36 -29,65 -65,65 -36,0 -65,-29 -65,-65 0,-36 29,-65 65,-65 36,0 65,29 65,65z"/>
  <path class="fil0" d="M5224 3850c0,71 -58,129 -129,129 -71,0 -129,-58 -129,-129 0,-71 58,-129 129,-129 71,0 129,58 129,129z"/>
  <path class="fil4" d="M5161 3850c0,36 -29,65 -65,65 -36,0 -65,-29 -65,-65 0,-36 29,-65 65,-65 36,0 65,29 65,65z"/>
  <path class="fil9" d="M4193 3783c0,71 -58,129 -129,129 -71,0 -129,-58 -129,-129 0,-71 58,-129 129,-129 71,0 129,58 129,129z"/>
  <path class="fil4" d="M4130 3783c0,36 -29,65 -65,65 -36,0 -65,-29 -65,-65 0,-36 29,-65 65,-65 36,0 65,29 65,65z"/>
  <path class="fil9" d="M4830 1874c0,71 -58,129 -129,129 -71,0 -129,-58 -129,-129 0,-71 58,-129 129,-129 71,0 129,58 129,129z"/>
  <path class="fil4" d="M4767 1874c0,36 -29,65 -65,65 -36,0 -65,-29 -65,-65 0,-36 29,-65 65,-65 36,0 65,29 65,65z"/>
  <path class="fil0" d="M3509 4629c0,71 -58,129 -129,129 -71,0 -129,-58 -129,-129 0,-71 58,-129 129,-129 71,0 129,58 129,129z"/>
  <path class="fil4" d="M3446 4629c0,36 -29,65 -65,65 -36,0 -65,-29 -65,-65 0,-36 29,-65 65,-65 36,0 65,29 65,65z"/>
  <path class="fil9" d="M4742 2161c0,71 -58,129 -129,129 -71,0 -129,-58 -129,-129 0,-71 58,-129 129,-129 71,0 129,58 129,129z"/>
  <path class="fil4" d="M4678 2161c0,36 -29,65 -65,65 -36,0 -65,-29 -65,-65 0,-36 29,-65 65,-65 36,0 65,29 65,65z"/>
  <path class="fil0" d="M2495 4699c0,76 -62,138 -138,138 -77,0 -139,-62 -139,-138 0,-76 62,-138 139,-138 76,0 138,62 138,138z"/>
  <path class="fil4" d="M2427 4699c0,39 -32,70 -70,70 -39,0 -71,-32 -71,-70 0,-39 32,-70 71,-70 39,0 70,32 70,70z"/>
  <path class="fil9" d="M4535 3925c0,76 -62,138 -139,138 -76,0 -139,-62 -139,-138 0,-76 62,-138 139,-138 76,0 139,62 139,138z"/>
  <path class="fil4" d="M4467 3925c0,39 -32,70 -70,70 -39,0 -70,-32 -70,-70 0,-39 32,-70 70,-70 39,0 70,32 70,70z"/>
  <path class="fil9" d="M3533 4307c0,76 -62,138 -138,138 -76,0 -138,-62 -138,-138 0,-77 62,-138 138,-138 76,0 138,62 138,138z"/>
  <path class="fil4" d="M3465 4307c0,39 -32,70 -70,70 -39,0 -70,-32 -70,-70 0,-39 32,-71 70,-71 39,0 70,32 70,71z"/>
  <path class="fil0" d="M4465 2320c0,76 -62,138 -139,138 -76,0 -139,-62 -139,-138 0,-76 62,-139 139,-139 76,0 139,62 139,139z"/>
  <path class="fil4" d="M4397 2320c0,39 -32,70 -70,70 -39,0 -70,-32 -70,-70 0,-39 32,-70 70,-70 39,0 70,32 70,70z"/>
  <path class="fil9" d="M1289 1360c0,76 -62,138 -138,138 -76,0 -139,-62 -139,-138 0,-77 62,-139 139,-139 76,0 138,62 138,139z"/>
  <path class="fil4" d="M1221 1360c0,39 -32,70 -70,70 -39,0 -70,-32 -70,-70 0,-39 32,-71 70,-71 39,0 70,32 70,71z"/>
  <path class="fil4" d="M3380 2750c0,52 -42,94 -94,94 -52,0 -94,-42 -94,-94 0,-52 42,-94 94,-94 52,0 94,42 94,94z"/>
  <path class="fil4" d="M4074 3169c0,35 -29,64 -64,64 -35,0 -64,-29 -64,-64 0,-35 29,-64 64,-64 35,0 64,29 64,64z"/>
  <path class="fil4" d="M1215 2167c0,35 -29,64 -64,64 -35,0 -64,-29 -64,-64 0,-35 29,-64 64,-64 35,0 64,29 64,64z"/>
  <path class="fil4" d="M1919 4445c0,35 -29,64 -64,64 -35,0 -64,-29 -64,-64 0,-35 29,-64 64,-64 35,0 64,29 64,64z"/>
  <path class="fil4" d="M1741 2777c0,35 -29,64 -64,64 -35,0 -64,-29 -64,-64 0,-35 29,-64 64,-64 35,0 64,29 64,64z"/>
  <path class="fil4" d="M2607 2084c0,35 -29,64 -64,64 -35,0 -64,-29 -64,-64 0,-35 29,-64 64,-64 35,0 64,29 64,64z"/>
  <path class="fil4" d="M3217 2571c0,35 -29,64 -64,64 -35,0 -64,-29 -64,-64 0,-35 29,-64 64,-64 35,0 64,29 64,64z"/>
  <path class="fil4" d="M2801 3050c0,35 -29,64 -64,64 -35,0 -64,-29 -64,-64 0,-35 29,-64 64,-64 35,0 64,29 64,64z"/>
  <path class="fil4" d="M4637 3692c0,35 -29,64 -64,64 -35,0 -64,-29 -64,-64 0,-35 29,-64 64,-64 35,0 64,29 64,64z"/>
 </g>
</svg>
